<?xml version="1.0" encoding="utf-8"?>
<!-- Generator: Adobe Illustrator 27.5.0, SVG Export Plug-In . SVG Version: 6.00 Build 0)  -->
<svg version="1.1" xmlns="http://www.w3.org/2000/svg" xmlns:xlink="http://www.w3.org/1999/xlink" x="0px" y="0px"
	 viewBox="0 0 500 500" style="enable-background:new 0 0 500 500;" xml:space="preserve">
<g id="BACKGROUND">
</g>
<g id="OBJECTS">
	<g>
		<g>
			<g>
				<g>
					<path style="fill:#F4D7AF;" d="M344.618,301.765c11.613-15.484,89.032-11.613,96-3.097c6.968,8.516,4.645,21.677,7.742,39.484
						c3.097,17.806,27.871,70.452,19.355,97.548c-8.516,27.097-6.968,21.677-20.903,24.774c-13.935,3.097-96,9.29-103.742-2.323
						c-7.742-11.613-3.871-43.355,0.774-73.548C348.489,354.41,334.819,314.83,344.618,301.765z"/>
					<path style="opacity:0.36;fill:#F4D7AF;" d="M357.657,332.234c6.121,2.434,12.054,4.023,18.667,4.382
						c13.903,0.756,27.902-1.688,41.643-3.498c7.053-0.929,14.721-1.885,21.179-5.012c2.586-1.252,5.046-2.634,7.571-3.775
						c-0.877-10.962-1.077-19.526-6.099-25.663c-6.968-8.516-84.387-12.387-96,3.097c-4.285,5.714-4.082,16.499-2.885,29.352
						C347.297,329.79,352.246,330.082,357.657,332.234z"/>
					<path style="opacity:0.38;fill:#F4D7AF;" d="M455.299,398.602c-18.119,18.978-46.902,26.373-72.427,25.694
						c-13.775-0.367-30.055-3.724-42.866-11.204c-2.094,19.805-2.224,37.128,3.063,45.06c7.742,11.613,89.806,5.419,103.742,2.323
						c13.936-3.097,12.387,2.323,20.903-24.774c3.951-12.572,0.733-30.642-4.158-48.182
						C461.302,391.478,458.549,395.198,455.299,398.602z"/>
				</g>
				<g>
					<path style="fill:#C6A883;" d="M343.07,458.152c2.271,3.407,10.943,5.28,22.41,6.149c2.26-1.975,4.245-4.263,5.937-6.771
						c3.53-5.233,6.182-11.23,8.024-17.256c2.121-6.936,2.726-14.233,2.536-21.457c-0.418-15.794-4.439-31.396-9.357-46.329
						c-2.255-6.847-4.73-13.636-7.426-20.322c-2.531-6.277-5.889-12.22-9.038-18.198c-3.451-6.552-6.862-13.16-9.488-20.095
						c-1.281-3.382-2.389-6.924-3.038-10.529c-7.809,14.431,4.687,52.191,0.214,81.261
						C339.199,414.797,335.328,446.539,343.07,458.152z"/>
					<path style="opacity:0.33;fill:#C6A883;" d="M358.393,404.814c-1.652-2.23-3.182-4.652-4.596-7.279
						c-3.046-5.659-6.386-11.203-9.466-16.843c-0.135,1.318-0.289,2.626-0.486,3.913c-4.645,30.194-8.516,61.936-0.774,73.548
						c2.271,3.407,10.943,5.28,22.41,6.149c2.26-1.975,4.245-4.263,5.937-6.771c3.53-5.233,6.182-11.23,8.024-17.256
						c1.543-5.047,2.277-10.285,2.493-15.547C372.014,424.247,363.904,413.986,358.393,404.814z"/>
				</g>
				<g>
					<path style="fill:#FFE5C5;" d="M443.836,294.41c-5.853-3.097-81.943-5.42-94.381,2.322c-6.819,4.244-7.697,7.788-7.102,10.125
						c4.24,3.346,8.586,6.39,9.505,11.87c0.172,0.394,0.346,0.802,0.523,1.231c5.121,12.387,35.85,6.194,50.483,6.968
						s40.24-3.097,44.63-6.194C451.884,317.636,449.689,297.507,443.836,294.41z"/>
					<linearGradient id="SVGID_1_" gradientUnits="userSpaceOnUse" x1="393.7682" y1="298.0258" x2="402.5424" y2="334.671">
						<stop  offset="0" style="stop-color:#FFFFFF"/>
						<stop  offset="0.4385" style="stop-color:#FFE5C5"/>
					</linearGradient>
					<path style="opacity:0.4;fill:url(#SVGID_1_);" d="M437.544,296.415c-5.083-2.689-71.165-4.707-81.966,2.017
						c-5.922,3.686-6.684,6.763-6.168,8.793c3.683,2.906,7.457,5.55,8.255,10.308c0.149,0.343,0.301,0.696,0.455,1.069
						c4.448,10.758,31.135,5.379,43.843,6.051c12.708,0.672,34.947-2.689,38.759-5.379
						C444.534,316.586,442.628,299.104,437.544,296.415z"/>
				</g>
			</g>
			<g>
				<path style="fill:#FFF5E1;" d="M377.908,339.7c0,0,54.968-4.645,58.065-3.097s19.355,58.065,13.935,91.355l-3.097,13.936
					l-57.29,3.871C389.521,445.765,392.618,361.378,377.908,339.7z"/>
				<g>
					<path style="fill:#8DA338;" d="M436.098,385.68c-2.361-13.587-14.713-22.884-19.627-35.485
						c-0.246-0.63-0.636-1.143-1.101-1.559c-0.333-1.036-0.763-2.059-1.322-3.061c-1.757-3.152-6.819-1.028-5.826,2.456
						c0.294,1.033,0.432,2.094,0.467,3.171c0.001,0.016-0.002,0.03-0.001,0.046c0.001,0.017,0.002,0.034,0.003,0.052
						c0.167,6.389-3.705,13.367-6.067,18.874c-2.713,6.326-5.361,12.803-5.706,19.779c-0.608,12.292,8.292,24.441,21.515,22.557
						C431.493,410.648,438.241,398.013,436.098,385.68z"/>
					<path style="fill:#465115;" d="M429.253,388.173c-2.944,5.172-5.688,10.819-7.434,16.634
						c-0.192-3.955-0.488-7.899-0.869-11.819c-0.141-1.447-0.307-2.891-0.475-4.335c2.31-5.78,3.822-11.988,5.914-17.849
						c0.176-0.494-0.637-0.846-0.856-0.361c-2.03,4.508-4.242,9.591-5.51,14.617c-0.569-4.298-1.256-8.579-2.072-12.837
						c1.471-3.021,2.242-6.685,3.088-9.912c0.123-0.471-0.549-0.637-0.716-0.197c-0.945,2.488-2.095,5.178-2.799,7.842
						c-1.397-7.164-2.644-15.206-5.995-21.675c-0.127-0.246-0.574-0.143-0.542,0.147c0.755,6.885,3.303,13.701,4.734,20.508
						c-0.602-0.684-1.265-1.336-1.795-1.983c-0.546-0.666-1.09-1.331-1.663-1.973c-0.682-0.765-1.329-1.181-2.101-1.818
						c-0.327-0.27-0.769,0.151-0.471,0.471c1.249,1.344,2.35,2.969,3.514,4.405c0.847,1.044,1.732,2.386,2.941,3.065
						c1.039,5.307,1.904,10.648,2.566,16.015c-2.359-4.778-5.98-9.194-9.445-12.962c-0.395-0.429-0.972,0.191-0.626,0.626
						c4.135,5.207,6.971,10.983,10.533,16.503c0.091,0.875,0.199,1.749,0.28,2.625c0.382,4.136,0.618,8.264,0.75,12.388
						c-3.104-5.287-8.032-9.501-12.514-13.542c-0.489-0.441-1.161,0.232-0.722,0.722c4.55,5.076,9.613,9.406,12.996,15.423
						c0.083,0.147,0.192,0.23,0.307,0.286c0.205,10.355-0.237,20.692-0.932,31.082c-0.036,0.538,0.872,0.673,0.953,0.129
						c1.541-10.323,1.995-20.846,1.689-31.325c2.509-6.93,4.769-13.785,8.037-20.455
						C430.266,388.113,429.538,387.672,429.253,388.173z"/>
				</g>
			</g>
		</g>
		<g>
			<g>
				<g>
					<g>
						<ellipse style="fill:#E0C296;" cx="397.199" cy="260.268" rx="61.161" ry="14.968"/>
						<g>
							<ellipse style="fill:#F9DEBD;" cx="397.199" cy="255.591" rx="62.71" ry="15.618"/>
							<ellipse style="fill:#FFF4E4;" cx="397.199" cy="255.591" rx="51.351" ry="9.939"/>
						</g>
					</g>
					<g>
						<g>
							<path style="fill:#F4D7AF;" d="M342.747,225.01c0,9.196,7.481,16.677,16.677,16.677h2.542
								c4.251,9.775,13.99,16.613,25.329,16.613h16.516c15.25,0,27.613-12.363,27.613-27.613V201.01h-71.742v7.323h-0.258
								C350.228,208.332,342.747,215.814,342.747,225.01z M348.747,225.01c0-5.888,4.79-10.677,10.677-10.677h0.258v16.355
								c0,1.708,0.163,3.377,0.46,5h-0.718C353.537,235.687,348.747,230.897,348.747,225.01z"/>
						</g>
						<g style="opacity:0.39;">
							<path style="fill:#F4D7AF;" d="M422.614,228.187c-9.549,8.993-20.223,14.763-33.388,16.235
								c-8.307,0.929-17.686,0.774-26.418-0.976c4.608,8.827,13.841,14.855,24.487,14.855h16.516
								c15.25,0,27.613-12.363,27.613-27.613v-12.25C428.755,222.031,425.666,225.313,422.614,228.187z"/>
						</g>
						<g>
							<ellipse style="fill:#D8BA95;" cx="396.038" cy="201.784" rx="35.871" ry="7.484"/>
						</g>
						<path style="fill:#8DA436;" d="M362.357,204.365c5.039,2.862,18.216,4.903,33.68,4.903c15.464,0,28.641-2.042,33.68-4.903
							c-5.039-2.862-18.216-4.903-33.68-4.903C380.574,199.462,367.396,201.503,362.357,204.365z"/>
					</g>
				</g>
			</g>
		</g>
		<g>
			<g>
				<g>
					<path style="fill:#8DA338;" d="M416.165,258.036c-0.61-5.803,9.543-7.777,13.754-9.034c4.804-1.433,9.607-2.871,14.416-4.287
						c-1.299-0.99-2.599-1.98-3.898-2.969c0.112,5.293-2.834,9.758-7.303,12.455c-1.878,1.133-3.931,1.897-6.069,2.371
						c-1.588,0.352-5.206-0.154-5.035,1.645c-0.472,1.141-0.945,2.281-1.417,3.422c3.525-3.671,10.068-5.478,14.823-6.707
						c-1.648-2.831-3.296-5.662-4.944-8.493c-1.523,1.284-3.081,2.213-4.944,2.923c1.322,3.135,2.643,6.27,3.965,9.405
						c3.624-2.753,7.381-5.255,11.257-7.637c-2.766-1.587-5.532-3.174-8.298-4.762c0.675-1.121,0.522-1.228-0.457-0.323
						c-1.334,0.526-1.54,0.698-0.616,0.515c1.287,0.533,2.574,1.066,3.862,1.6c-0.095-0.115-0.19-0.229-0.286-0.344
						c0.272,2.107,0.544,4.214,0.816,6.322c0.073-0.104,0.146-0.207,0.219-0.311c2.253-3.191-0.779-7.531-4.326-7.538
						c-0.133,0-0.265-0.001-0.398-0.001c-2.283-0.005-4.431,1.624-5.03,3.83c-0.041,0.151-0.082,0.301-0.123,0.452
						c-0.574,2.113,0.332,5.202,2.51,6.167c6.766,3.001,14.448-3.527,14.859-10.369c0.245-4.074-4.907-7.014-8.298-4.762
						c-4.166,2.767-8.121,5.835-11.925,9.079c-3.788,3.23,0.25,10.499,5.006,8.6c3.58-1.429,6.48-3.126,9.394-5.661
						c3.936-3.424-0.263-9.779-4.944-8.493c-6.109,1.678-14.827,4.542-18.966,9.662c-4.555,5.635,2.239,11.296,7.697,11.633
						c13.547,0.835,24.946-11.825,25.131-24.682c0.029-2.034-1.988-3.458-3.898-2.969c-8.002,2.049-15.789,4.374-23.225,8.034
						c-4.882,2.403-9.83,6.349-6.925,12.205C413.376,260.684,416.367,259.951,416.165,258.036L416.165,258.036z"/>
				</g>
			</g>
			<g>
				<g>
					<g>
						<path style="fill:#465115;" d="M443.128,242.536c-7.803,6.188-14.873,10.744-24.283,14.116
							c-8.973,3.215-17.255,5.288-26.867,5.396c-1.332,0.015-1.33,2.032,0,2.067c10.308,0.275,19.413-2.45,29.003-5.984
							c9.045-3.333,16.359-7.69,22.774-14.969C444.139,242.726,443.568,242.187,443.128,242.536L443.128,242.536z"/>
					</g>
				</g>
				<g>
					<g>
						<path style="fill:#465115;" d="M438.785,240.913c-1.162,1.291-1.998,2.851-2.872,4.343c-0.776,1.326-1.86,2.7-2.008,4.255
							c-0.031,0.325,0.413,0.585,0.679,0.39c1.254-0.923,1.88-2.551,2.616-3.893c0.834-1.519,1.749-3.039,2.261-4.702
							C439.579,240.928,439.056,240.612,438.785,240.913L438.785,240.913z"/>
					</g>
				</g>
				<g>
					<g>
						<path style="fill:#465115;" d="M444.043,248.662c-2.963,0.295-5.585,0.799-8.566,0.21c-1.009-0.199-1.447,1.331-0.428,1.554
							c2.977,0.65,6.56,0.709,9.201-1.002C444.561,249.223,444.475,248.619,444.043,248.662L444.043,248.662z"/>
					</g>
				</g>
				<g>
					<g>
						<path style="fill:#465115;" d="M438.911,254.186c-3.11-0.049-5.816-0.631-8.82-1.346c-1.005-0.239-1.373,1.184-0.422,1.53
							c2.887,1.049,6.555,2.011,9.437,0.539C439.461,254.728,439.279,254.192,438.911,254.186L438.911,254.186z"/>
					</g>
				</g>
				<g>
					<g>
						<path style="fill:#465115;" d="M430.885,243.635c-1.632,2.587-2.44,6.59-2.169,9.632c0.065,0.728,1.215,1.019,1.376,0.186
							c0.325-1.683,0.378-3.408,0.696-5.099c0.284-1.509,0.706-2.982,0.859-4.513C431.691,243.413,431.084,243.319,430.885,243.635
							L430.885,243.635z"/>
					</g>
				</g>
				<g>
					<g>
						<path style="fill:#465115;" d="M423.591,246.102c-1.892,2.82-3.587,7.462-2.708,10.865c0.158,0.613,1.183,0.674,1.302,0
							c0.312-1.771,0.297-3.529,0.754-5.291c0.457-1.762,1.131-3.447,1.416-5.252C424.427,245.965,423.867,245.691,423.591,246.102
							L423.591,246.102z"/>
					</g>
				</g>
				<g>
					<g>
						<path style="fill:#465115;" d="M432.067,259.239c-1.782-0.42-3.646-0.177-5.453-0.507c-1.972-0.36-3.374-1.185-4.954-2.349
							c-0.383-0.283-0.956,0.098-0.939,0.539c0.072,1.942,2.481,2.707,4.098,3.166c2.208,0.627,5.078,0.906,7.249,0.054
							C432.463,259.987,432.558,259.355,432.067,259.239L432.067,259.239z"/>
					</g>
				</g>
				<g>
					<g>
						<path style="fill:#465115;" d="M416.743,250.714c-0.704,1.2-1.264,2.355-1.47,3.745c-0.17,1.15-0.355,2.719,0.361,3.704
							c0.29,0.398,0.919,0.374,1.072-0.14c0.281-0.942-0.006-2.001,0.06-2.99c0.086-1.286,0.319-2.637,0.823-3.826
							C417.827,250.646,417.072,250.154,416.743,250.714L416.743,250.714z"/>
					</g>
				</g>
				<g>
					<g>
						<path style="fill:#465115;" d="M423.455,263.187c-1.477-0.257-3.03-1.053-4.204-1.973c-1.217-0.954-1.823-2.24-2.765-3.409
							c-0.34-0.422-1.197-0.089-1.124,0.465c0.226,1.718,1.575,3.195,2.912,4.208c1.575,1.194,3.12,1.563,5.058,1.612
							C423.839,264.103,423.975,263.277,423.455,263.187L423.455,263.187z"/>
					</g>
				</g>
			</g>
		</g>
		<g>
			
				<rect x="82.354" y="78.569" transform="matrix(0.9931 -0.1173 0.1173 0.9931 -16.1424 11.0777)" style="fill:#9AB8B7;" width="7.372" height="128.217"/>
			<g>
				<g>
					<path style="opacity:0.57;fill:#AAF5F9;" d="M112.997,231.263c0,2.352-14.818,4.258-33.097,4.258
						c-18.279,0-33.097-1.906-33.097-4.258c0-2.352,14.818-4.258,33.097-4.258C98.179,227.005,112.997,228.911,112.997,231.263z"/>
					<path style="fill:#8EA435;" d="M100.251,166.895c-7.461-0.762-14.572-3.767-22.14-3.611
						c-6.999,0.144-13.108,4.314-20.067,4.855c-3.058,0.238-5.844-0.365-8.548-1.26v61.031c-0.114,0.144-0.177,0.29-0.177,0.439
						c0,2.251,13.537,4.076,30.235,4.076c15.771,0,28.716-1.628,30.105-3.705h1.014v-62.151
						C107.245,167.098,103.768,167.254,100.251,166.895z"/>
					<path style="opacity:0.39;fill:#AAF5F9;" d="M113.965,136.811H46.997v93.993c-0.125,0.151-0.194,0.303-0.194,0.458
						c0,2.352,14.818,4.258,33.097,4.258c17.264,0,31.433-1.701,32.954-3.871h1.11V136.811z"/>
				</g>
				<g>
					<g>
						<circle style="fill:#F4D7AF;" cx="81.642" cy="176.682" r="27.097"/>
						<circle style="fill:#FFF1DB;" cx="81.642" cy="176.682" r="23.613"/>
					</g>
					<g>
						<path style="fill:#8EA435;" d="M84.264,159.576c-1.173-1.29-3.317-0.285-3.398,1.337c-0.182,0.176-0.325,0.419-0.396,0.749
							c-1.545,7.205-10.1,10.571-9.252,18.68c0.526,5.03,5.885,10.043,11.118,9.605c5.27-0.441,8.125-7.579,8.705-12.029
							C91.947,170.978,88.835,164.603,84.264,159.576z"/>
						<path style="fill:#465115;" d="M89.192,181.479c-2.388,1.553-4.875,2.696-7.409,3.879c0.467-1.385,0.869-2.817,1.217-4.272
							c2.941-0.988,5.565-4.38,6.118-7.32c0.079-0.418-0.514-0.742-0.733-0.309c-0.703,1.391-1.397,2.739-2.478,3.886
							c-0.761,0.808-1.622,1.374-2.506,1.943c0.496-2.438,0.826-4.91,1.008-7.318c0.822-0.465,1.494-1.252,2.061-1.972
							c0.726-0.923,1.308-1.931,1.528-3.094c0.086-0.454-0.452-0.66-0.72-0.304c-0.668,0.888-1.242,1.842-1.962,2.691
							c-0.244,0.288-0.519,0.551-0.796,0.812c0.098-2.28,0.062-4.476-0.118-6.482c-0.046-0.509-0.737-0.505-0.788,0
							c-0.243,2.371-0.449,4.728-0.708,7.075c-0.682-1.415-1.424-2.816-2.266-4.128c-0.238-0.37-0.908-0.141-0.745,0.314
							c0.688,1.926,1.592,3.812,2.542,5.62c0.06,0.114,0.14,0.182,0.226,0.231c-0.247,1.928-0.557,3.85-0.976,5.768
							c-1.183-2.499-2.49-5.053-3.895-7.346c-0.264-0.431-0.937-0.151-0.814,0.343c0.772,3.121,2.378,6.502,4.166,9.212
							c-0.394,1.42-0.867,2.812-1.379,4.188c-0.096-0.015-0.199-0.002-0.3,0.052c-0.069,0.036-0.136,0.076-0.205,0.113
							c-1.898-2.574-2.915-5.31-3.964-8.337c-0.153-0.441-0.878-0.401-0.855,0.116c0.155,3.523,1.95,6.945,4.118,9.645
							c0.133,0.166,0.332,0.214,0.528,0.197c-0.902,2.347-1.816,4.684-2.443,7.113c-0.127,0.492,0.501,0.701,0.777,0.327
							c1.482-2.007,2.717-4.404,3.726-7.011c3.18-0.754,6.218-2.788,8.507-5.036C89.956,181.78,89.561,181.24,89.192,181.479z"/>
					</g>
				</g>
			</g>
			<g>
				<path style="opacity:0.39;fill:#AAF5F9;" d="M112.61,136.811v3.194c6.04-6.846,9.677-15.65,9.677-25.258
					c0-21.806-18.717-39.484-41.806-39.484c-23.089,0-41.807,17.677-41.807,39.484c0,8.173,2.629,15.765,7.132,22.065H112.61z"/>
				<rect x="34.997" y="107.779" style="opacity:0.39;fill:#AAF5F9;" width="90.968" height="7.742"/>
				<path style="opacity:0.39;fill:#AAF5F9;" d="M112.61,144.553H48.352c-1.924,0-3.484-1.56-3.484-3.484l0,0
					c0-1.924,1.56-3.484,3.484-3.484h64.258c1.924,0,3.484,1.56,3.484,3.484l0,0C116.094,142.993,114.534,144.553,112.61,144.553z"
					/>
				<g>
					<ellipse style="fill:#AAF5F9;" cx="80.481" cy="82.424" rx="10.839" ry="3.677"/>
					<path style="fill:#9AB8B7;" d="M82.271,79.495l-4.196-35.992l0.002-0.002c0,0,0.469-7.744-5.148-7.032L41.541,57.631
						l-3.267,2.21c-0.921,0.623-1.268,1.8-0.86,2.834c0.329,0.832,0.719,1.693,1.167,2.56c0.023,0.044,0.046,0.089,0.069,0.133
						c0.645,1.232,2.232,1.608,3.384,0.829l3.318-2.244l25.667-17.305l3.885,33.328l0.675,5.711c1.402,0.261,3.01,0.41,4.722,0.41
						c0.95,0,1.866-0.048,2.735-0.134L82.271,79.495z"/>
				</g>
			</g>
		</g>
		<g>
			<path style="fill:#C6C6C6;" d="M352.042,166.593c-0.669-2.988-3.452-5.024-6.512-4.91l-53.707,1.794
				c-1.132-5.889-6.305-10.339-12.524-10.339h-15.374c-7.047,0-12.761,5.713-12.761,12.761l0,0c0,7.048,5.713,12.761,12.761,12.761
				h15.374c5.209,0,9.682-3.126,11.665-7.6l54.566,1.823c3.06,0.114,5.843-1.922,6.512-4.91c0.059-0.263,0.092-0.497,0.092-0.689
				C352.134,167.091,352.101,166.856,352.042,166.593z"/>
			<path style="opacity:0.41;fill:#C6C6C6;" d="M352.042,166.593c-0.669-2.988-3.452-5.024-6.512-4.91l-6.815,0.228
				c-0.371,0.37-0.841,0.698-1.434,0.96c-8.689,3.826-17.631,6.653-26.728,8.843l34.977,1.168c3.06,0.114,5.843-1.922,6.512-4.91
				c0.059-0.263,0.092-0.497,0.092-0.689C352.134,167.091,352.101,166.856,352.042,166.593z"/>
			<g>
				<path style="fill:#AAAAAA;" d="M278.376,153.138h-15.374c-5.252,0-9.759,3.175-11.716,7.708
					c-0.072,0.548-0.122,1.103-0.122,1.671v0c0,7.048,5.713,12.761,12.761,12.761h15.375c5.252,0,9.759-3.175,11.716-7.708
					c0.072-0.548,0.122-1.103,0.122-1.671l0,0C291.136,158.852,285.423,153.138,278.376,153.138z"/>
				<g>
					<path style="fill:#8EA435;" d="M263.923,175.277h15.375c5.247,0,9.75-3.169,11.71-7.695c-0.174-0.969-0.958-1.945-2.025-2.087
						c-0.587-0.081-1.174-0.155-1.762-0.228c-0.336-0.106-0.682-0.174-1.036-0.193c-0.455-0.467-0.726-1.327-1.148-1.859
						c-1.035-1.303-2.366-2.303-3.904-2.944c-1.821-0.759-4.005-1.138-5.881-0.659c-0.278-0.528-0.93-1.518-1.103-1.721
						c-0.741-0.873-1.621-1.482-2.639-1.986c-0.78-0.386-1.645-0.711-2.544-0.969c-0.337-1.252-0.992-2.394-1.884-3.399
						c-2.058-2.32-6.095-1.055-6.839,1.805c-0.072,0.277-0.133,0.568-0.181,0.868c-0.148,0.33-0.274,0.668-0.375,1.016
						c-0.007,0.023-0.019,0.045-0.026,0.068c-0.051,0.165-0.089,0.332-0.119,0.499c-0.801,0.543-1.503,1.226-2.039,2.05
						c-0.952,1.464-0.879,2.908-0.906,4.362c-1.227,0.741-2.177,1.917-2.566,3.446c-0.84,0.13-1.585,0.443-2.214,0.881
						C253.503,171.611,258.281,175.277,263.923,175.277z"/>
					<path style="opacity:0.2;fill:#8EA435;" d="M288.983,165.496c-0.587-0.081-1.174-0.155-1.762-0.228
						c-0.336-0.106-0.682-0.174-1.036-0.193c-0.19-0.195-0.348-0.46-0.499-0.74c-0.109,0.046-0.219,0.09-0.326,0.14
						c-1.946,0.911-3.699,2.186-5.493,3.354c-1.726,1.124-3.546,2.25-5.565,2.754c-0.924,0.23-1.882,0.312-2.827,0.184
						c-1.083-0.147-2.003-0.612-2.889-1.239c-0.918-0.65-1.734-1.424-2.554-2.19c-0.815-0.762-1.682-1.654-2.692-2.155
						c-1.121-0.555-2.424-0.728-3.635-0.987c-1.189-0.255-2.315-0.612-3.423-1.113c-0.179-0.081-0.357-0.165-0.535-0.252
						c-0.81,0.717-1.423,1.669-1.717,2.822c-0.84,0.13-1.585,0.443-2.214,0.881c1.685,5.077,6.463,8.743,12.105,8.743h15.375
						c5.247,0,9.75-3.169,11.71-7.695C290.835,166.614,290.051,165.638,288.983,165.496z"/>
				</g>
			</g>
		</g>
		<g>
			<path style="fill:#F4D7AF;" d="M232.788,164.497c-0.669-2.988-3.452-5.024-6.512-4.91l-52.172,1.743
				c-0.017,2.57-0.037,5.141-0.054,7.711l52.225,1.745c3.06,0.114,5.843-1.922,6.512-4.91c0.059-0.263,0.092-0.497,0.092-0.689
				C232.88,164.994,232.847,164.76,232.788,164.497z"/>
			<path style="opacity:0.43;fill:#F4D7AF;" d="M226.275,159.587l-5.539,0.185c-3.553,2.129-7.17,4.143-10.921,5.907
				c-3.658,1.72-7.355,3.059-11.115,4.186l27.575,0.921c3.06,0.114,5.843-1.922,6.512-4.91c0.059-0.263,0.092-0.497,0.092-0.689
				c0-0.192-0.034-0.427-0.092-0.689C232.118,161.508,229.335,159.473,226.275,159.587z"/>
			<g>
				<path style="fill:#F4D7AF;" d="M172.292,153.772L172.292,153.772c-1.178,0-2.132,1.793-2.132,4.005v14.019
					c0,2.212,0.955,4.005,2.132,4.005l0,0c1.178,0,2.132-1.793,2.132-4.005v-14.019C174.425,155.566,173.47,153.772,172.292,153.772
					z"/>
				<path style="fill:#F4D7AF;" d="M158.184,153.772L158.184,153.772c-1.178,0-2.132,1.793-2.132,4.005v14.019
					c0,2.212,0.955,4.005,2.132,4.005l0,0c1.178,0,2.132-1.793,2.132-4.005v-14.019
					C160.317,155.566,159.362,153.772,158.184,153.772z"/>
				<path style="fill:#F4D7AF;" d="M165.256,153.772L165.256,153.772c-1.178,0-2.132,1.793-2.132,4.005v14.019
					c0,2.212,0.955,4.005,2.132,4.005h0c1.177,0,2.132-1.793,2.132-4.005v-14.019C167.388,155.566,166.434,153.772,165.256,153.772z
					"/>
				<path style="fill:#C49C6C;" d="M167.424,171.855c0,0,1.031-0.881,1.398-0.876c0.352,0.004,1.338,0.876,1.338,0.876v-14.137
					c0,0-1.009,0.876-1.368,0.876s-1.368-0.876-1.368-0.876V171.855z"/>
				<path style="fill:#C49C6C;" d="M160.352,171.855c0,0,1.031-0.881,1.398-0.876c0.352,0.004,1.338,0.876,1.338,0.876v-14.137
					c0,0-1.009,0.876-1.368,0.876c-0.359,0-1.368-0.876-1.368-0.876V171.855z"/>
				<path style="fill:#F4D7AF;" d="M151.118,153.772L151.118,153.772c-1.178,0-2.132,1.793-2.132,4.005v14.019
					c0,2.212,0.955,4.005,2.132,4.005h0c1.178,0,2.132-1.793,2.132-4.005v-14.019C153.25,155.566,152.295,153.772,151.118,153.772z"
					/>
				<path style="fill:#C49C6C;" d="M153.286,171.855c0,0,1.031-0.881,1.398-0.876c0.352,0.004,1.338,0.876,1.338,0.876v-14.137
					c0,0-1.009,0.876-1.368,0.876c-0.359,0-1.368-0.876-1.368-0.876V171.855z"/>
				<path style="fill:#F4D7AF;" d="M145.042,156.624L145.042,156.624c-0.936,0-1.695,1.329-1.695,2.968v10.389
					c0,1.639,0.759,2.968,1.695,2.968l0,0c0.936,0,1.695-1.329,1.695-2.968v-10.389
					C146.737,157.953,145.978,156.624,145.042,156.624z"/>
				<path style="fill:#C49C6C;" d="M146.766,170.025c0,0,0.82-0.653,1.111-0.649c0.28,0.003,1.064,0.649,1.064,0.649v-10.476
					c0,0-0.802,0.649-1.088,0.649c-0.286,0-1.088-0.649-1.088-0.649V170.025z"/>
			</g>
			<path style="opacity:0.4;fill:#F9A846;" d="M158.144,152.885c-1.091-0.063-2.223,0.549-2.66,1.55
				c-0.182,0.417-0.352,0.974-0.806,1.005c-0.561,0.039-0.729-0.724-0.894-1.262c-0.255-0.827-0.995-1.484-1.846-1.639
				c-0.851-0.155-1.776,0.198-2.306,0.882c-0.39,0.503-0.565,1.142-0.931,1.663c-0.366,0.521-1.073,0.917-1.63,0.609
				c-0.22-0.121-0.375-0.331-0.563-0.497c-0.578-0.508-1.459-0.566-2.176-0.287c-0.717,0.279-1.288,0.845-1.74,1.468
				c-2.149,2.966-1.808,6.968-2.101,10.619c-0.14,1.738-0.438,3.531,0.096,5.191c0.534,1.66,2.267,3.104,3.935,2.598
				c0.586-0.178,1.16-0.579,1.754-0.431c0.941,0.234,1.028,1.502,1.419,2.39c0.43,0.977,1.453,1.642,2.518,1.718
				c1.065,0.076,2.137-0.404,2.854-1.196c0.849-0.938,1.392-2.379,2.639-2.59c-0.242,2.057-0.215,4.145,0.078,6.194
				c0.155,1.086,0.393,2.182,0.933,3.137c0.54,0.955,1.424,1.762,2.496,1.994c0.292,0.063,0.611,0.079,0.875-0.06
				c0.397-0.209,0.549-0.693,0.632-1.134c0.298-1.601,0.153-3.247,0.209-4.875c0.057-1.628,0.353-3.333,1.381-4.596
				c0.84,1.457,0.215,3.273,0.124,4.953c-0.021,0.397-0.007,0.813,0.18,1.165c0.187,0.351,0.59,0.615,0.977,0.525
				c0.726-0.168,0.716-1.177,0.76-1.921c0.043-0.741,0.316-1.467,0.77-2.054c0.091-0.117,0.198-0.235,0.342-0.27
				c0.236-0.058,0.462,0.127,0.603,0.325c0.436,0.611,0.475,1.41,0.498,2.16c0.078,2.504,0.155,5.007,0.233,7.511
				c0.045,1.457,0.116,2.999,0.923,4.212c0.21,0.316,0.481,0.612,0.837,0.741c0.664,0.24,1.422-0.192,1.782-0.801
				c0.359-0.608,0.415-1.343,0.448-2.049c0.154-3.252,0.029-6.516-0.372-9.747c-0.079-0.636-0.169-1.274-0.149-1.915
				c0.035-1.127,0.405-2.282,0.067-3.357c-0.133-0.423,0.117-13.346-0.441-18.908c-0.064-0.635-0.277-2.405-1.018-2.96
				c-2.311-1.733-4.738-0.457-6.01,1.052c-0.54,0.641-0.952,1.428-1.789,0.885C159.964,154.164,159.76,152.977,158.144,152.885z"/>
		</g>
		<g>
			<g>
				<g>
					<path style="fill:#F9A846;" d="M192.203,129.372h-23.577c-8.031,0-14.42-6.734-13.998-14.754l3.276-62.278h45.022l3.276,62.278
						C206.623,122.638,200.234,129.372,192.203,129.372z"/>
					<path style="opacity:0.28;fill:#AAF5F9;" d="M194.158,135.76h-27.487c-9.363,0-16.811-7.851-16.319-17.2l3.819-72.606h52.488
						l3.819,72.606C210.969,127.909,203.521,135.76,194.158,135.76z"/>
				</g>
				<g>
					<g>
						<g>
							<g>
								<rect x="160.802" y="68.944" style="fill:#F4D7AF;" width="39.226" height="42.792"/>
							</g>
							<g>
								<rect x="163.619" y="72.018" style="fill:#FFF1DB;" width="33.591" height="36.645"/>
							</g>
						</g>
						<g>
							<polygon style="fill:#F9A846;" points="178.07,76.732 172.262,76.732 169.358,81.762 172.262,86.792 178.07,86.792 
								180.974,81.762 							"/>
							<polygon style="fill:#D68630;" points="188.392,82.41 182.584,82.41 179.681,87.439 182.584,92.469 188.392,92.469 
								191.296,87.439 							"/>
							<polygon style="fill:#F9A846;" points="188.392,94.991 182.584,94.991 179.681,100.02 182.584,105.05 188.392,105.05 
								191.296,100.02 							"/>
							<polygon style="fill:#D68630;" points="178.328,88.797 172.52,88.797 169.616,93.827 172.52,98.856 178.328,98.856 
								181.232,93.827 							"/>
						</g>
					</g>
					<g>
						<path style="fill:#F4D7AF;" d="M195.955,78.992c-4.282,5.847-8.958,11.591-13.733,17.042
							c-6.065,6.923-12.937,12.568-20.801,15.703h38.606V72.41C198.904,74.703,197.488,76.898,195.955,78.992z"/>
					</g>
				</g>
			</g>
			<g>
				<path style="fill:#FF6464;" d="M207.77,52.792h-56.258v0c0-8.836,7.163-16,16-16h24.258
					C200.606,36.792,207.77,43.955,207.77,52.792L207.77,52.792z"/>
				<path style="opacity:0.4;fill:#FF6464;" d="M194.889,37.136c-12.314,8.867-28.11,13.569-43.141,12.947
					c-0.151,0.881-0.237,1.785-0.237,2.709v0h56.258v0C207.77,45.027,202.227,38.589,194.889,37.136z"/>
			</g>
		</g>
		<g>
			<g>
				<path style="fill:#8DA338;" d="M313.456,110.705c-6.131-3.691-6.968-12.118-13.089-15.904c-7.19-4.447-15.58,0.047-21.525,4.457
					c-0.352,0.261-0.5,0.619-0.5,0.968c-0.22,0.222-0.394,0.489-0.487,0.806c-2.162,7.335,3.973,9.796,9.979,9.765
					c4.775-0.024,7.981,3.128,12.449,4.155c4.221,0.97,8.619-0.017,12.744-0.968C314.569,113.63,314.733,111.474,313.456,110.705z"
					/>
				<g>
					<path style="fill:#8DA338;" d="M262.808,75.578c-1.811-3.957-5.048-6.092-8.491-8.504c-5.031-3.525-9.436-7.738-13.276-12.522
						c-1.111-1.384-3.757-0.636-4.068,1.074c-1.276,7.012-1.15,13.979-0.298,21.039c0.677,5.611,1.623,11.12,5.521,15.472
						c2.758,3.078,8.457,7.241,12.928,6.076c0.215-0.056,0.418-0.134,0.62-0.214c0.45,0.297,1.074,0.356,1.511-0.087
						C263.087,91.991,266.489,83.62,262.808,75.578z"/>
					<path style="fill:#465115;" d="M257.091,96.249c2.928-5.354,5.102-11.392,6.106-17.411c0.074-0.444-0.539-0.629-0.683-0.188
						c-1.785,5.436-3.464,10.813-6.116,15.887c-0.581-1.701-1.211-3.383-1.864-5.037c0.01-0.065,0.012-0.129,0.006-0.191
						c0.02-0.026,0.043-0.048,0.058-0.081c1.206-2.652,1.769-5.724,2.545-8.532c0.829-2.999,1.457-5.942,1.492-9.062
						c0.005-0.407-0.654-0.52-0.729-0.099c-0.571,3.172-1.359,6.284-2.257,9.378c-0.635,2.188-1.551,4.436-1.864,6.718
						c-0.855-2.102-1.722-4.151-2.533-6.113c-0.01-0.025-0.021-0.05-0.032-0.076c1.098-2.398,2.024-4.769,2.582-7.358
						c0.34-1.579,0.976-3.571,0.613-5.188c-0.053-0.238-0.392-0.267-0.509-0.067c-0.791,1.36-1.021,3.11-1.384,4.622
						c-0.514,2.141-1.222,4.15-2.079,6.152c-0.387-0.914-0.782-1.824-1.183-2.733c0.001-0.004,0.003-0.006,0.004-0.01
						c0.289-1.8,0.307-3.652,0.494-5.468c0.207-2.016,0.601-4.07,0.527-6.099c-0.016-0.439-0.659-0.549-0.779-0.105
						c-0.475,1.756-0.645,3.61-0.887,5.41c-0.166,1.233-0.381,2.518-0.47,3.794c-0.829-1.802-1.695-3.587-2.595-5.353
						c0.036-0.044,0.078-0.08,0.089-0.148c0.188-1.21,0.01-2.467-0.015-3.691c-0.024-1.219,0.022-2.456-0.19-3.659
						c-0.049-0.28-0.481-0.258-0.545,0c-0.296,1.189-0.288,2.439-0.284,3.659c0.002,0.672-0.016,1.368,0.016,2.056
						c-0.402-0.74-0.811-1.469-1.221-2.188c-0.022-2.314-0.276-4.651-0.557-6.944c-0.042-0.341-0.542-0.363-0.548,0
						c-0.031,1.667-0.041,3.355,0.035,5.031c-1.315-2.399-2.463-4.842-2.923-7.72c-0.128-0.799-1.266-0.526-1.326,0.179
						c-0.266,3.153,1.057,5.816,2.567,8.426c-0.153-0.075-0.303-0.147-0.443-0.217c-0.646-0.324-1.319-0.607-1.983-0.895
						c-0.431-0.187-0.814,0.41-0.379,0.648c0.635,0.348,1.244,0.726,1.86,1.105c0.545,0.336,1.137,0.823,1.768,0.949
						c0.039,0.008,0.066-0.009,0.101-0.009c0.03,0.051,0.06,0.102,0.09,0.153c0.69,1.18,1.343,2.383,1.976,3.598
						c-0.667-0.171-1.368-0.281-1.947-0.474c-1.483-0.494-2.952-1.086-4.375-1.732c-0.393-0.178-0.848,0.296-0.491,0.636
						c1.147,1.091,2.626,1.731,4.094,2.268c0.944,0.346,2.364,1.005,3.509,0.874c0.664,1.33,1.308,2.67,1.928,4.021
						c-1.503-0.258-2.991-0.601-4.468-0.986c-1.299-0.338-3.448-1.454-4.769-1.074c-0.203,0.058-0.312,0.303-0.199,0.49
						c0.786,1.293,3.548,1.628,4.885,1.987c1.712,0.459,3.483,0.93,5.261,1.141c0.402,0.897,0.803,1.796,1.195,2.695
						c0.327,0.75,0.655,1.505,0.982,2.263c-1.375-0.253-2.838-0.324-4.16-0.661c-2.263-0.576-4.427-1.464-6.686-2.049
						c-0.525-0.136-0.815,0.577-0.364,0.864c2.019,1.284,4.343,2.046,6.638,2.679c1.512,0.417,3.594,1.088,5.326,0.925
						c0.751,1.762,1.494,3.545,2.21,5.346c-2.087-0.249-4.153-0.482-6.222-1.019c-1.756-0.456-5.235-0.841-6.61-2.087
						c-0.277-0.251-0.694,0.063-0.517,0.399c0.835,1.582,3.301,1.979,4.842,2.502c2.905,0.985,6.042,1.891,9.149,1.849
						c0.586,1.518,1.151,3.047,1.683,4.587c-4.133-0.354-8.648-1.757-12.042-3.823c-0.552-0.336-1.032,0.507-0.503,0.86
						c3.611,2.408,8.579,4.348,13.085,4.57c1.551,4.719,2.769,9.52,3.357,14.35c0.07,0.574,0.896,0.607,0.92,0
						c0.181-4.722-0.843-9.615-2.357-14.41C257.028,96.324,257.065,96.298,257.091,96.249z"/>
				</g>
				<g>
					<path style="fill:#8DA338;" d="M300.12,54.746c-1.919-4.583-6.575-9.565-6.701-14.648c-0.045-1.832-2.527-3.156-3.866-1.601
						c-2.457,2.852-2.448,7.131-2.946,10.725c-0.042,0.303-0.082,0.606-0.124,0.909c-2.725,6.454-9.551,11.193-9.454,18.804
						c0.084,6.612,6.146,10.369,12.312,9.798c6.828-0.633,12.042-6.041,12.752-12.791C302.501,62.07,301.609,58.302,300.12,54.746z"
						/>
					<path style="fill:#465115;" d="M289.299,73.31c2.109-0.666,4.207-3.036,5.657-4.447c2.351-2.286,4.469-4.768,6.617-7.24
						c0.353-0.406-0.214-0.991-0.597-0.597c-2.095,2.162-4.214,4.315-6.39,6.396c-1.584,1.515-3.463,2.737-5.131,4.135
						c0.195-2.245,0.366-4.495,0.525-6.753c3.758-2.679,7.587-6.074,9.791-10.154c0.239-0.442-0.396-0.807-0.67-0.392
						c-2.235,3.38-5.695,6.324-8.997,8.792c0.113-1.606,0.227-3.217,0.325-4.829c1.266-0.517,2.474-1.55,3.428-2.413
						c1.441-1.304,2.637-2.801,3.432-4.581c0.163-0.365-0.325-0.672-0.546-0.319c-0.941,1.5-2.093,2.862-3.428,4.027
						c-0.878,0.766-1.858,1.32-2.813,1.923c0.095-1.821,0.161-3.642,0.149-5.459c-0.003-0.388-0.017-0.774-0.032-1.16
						c0.46-0.811,0.676-1.781,0.986-2.654c0.394-1.112,0.802-2.218,1.237-3.314c0.126-0.317-0.412-0.547-0.555-0.234
						c-0.472,1.03-0.928,2.067-1.34,3.122c-0.135,0.345-0.283,0.702-0.426,1.062c-0.147-2.673-0.243-5.299,0.818-7.904
						c0.19-0.466-0.528-0.713-0.779-0.329c-1.596,2.448-1.476,5.237-1.378,8.071c0,0.007,0,0.014,0,0.022
						c-0.029-0.064-0.061-0.131-0.086-0.192c-0.234-0.575-0.531-1.117-0.808-1.672c-0.123-0.246-0.494-0.071-0.432,0.182
						c0.16,0.651,0.298,1.299,0.514,1.934c0.167,0.493,0.238,1.077,0.71,1.355c0.043,0.025,0.088,0.037,0.131,0.039
						c0.032,2.234-0.01,4.458-0.106,6.688c-0.267-0.299-0.54-0.584-0.717-0.851c-0.632-0.956-1.072-1.997-1.578-3.02
						c-0.161-0.326-0.75-0.183-0.708,0.192c0.139,1.23,0.621,2.371,1.271,3.421c0.357,0.578,0.932,1.6,1.648,1.965
						c-0.02,0.385-0.036,0.769-0.058,1.155c-0.068,1.222-0.134,2.446-0.202,3.67c-2.083-1.789-4.324-3.949-5.186-6.446
						c-0.109-0.315-0.633-0.288-0.613,0.083c0.101,1.906,1.485,3.582,2.664,4.978c0.824,0.975,1.857,2.337,3.04,3.067
						c-0.121,2.133-0.251,4.268-0.399,6.402c-1.04-1.291-2.339-2.458-3.355-3.724c-1.637-2.04-3.025-4.214-4.481-6.38
						c-0.243-0.361-0.892-0.148-0.74,0.312c0.799,2.426,2.341,4.608,3.88,6.619c1.307,1.708,2.74,3.875,4.558,5.099
						c-0.086,1.145-0.181,2.29-0.283,3.434c-2.611-0.761-4.647-1.902-6.637-4.129c-1.266-1.417-2.2-3.131-3.487-4.513
						c-0.32-0.344-0.794,0.157-0.507,0.507c1.549,1.894,2.532,4.12,4.269,5.908c1.607,1.653,3.852,3.323,6.237,3.582
						c-0.326,3.41-0.733,6.807-1.282,10.178c-0.081,0.5,0.67,0.725,0.773,0.213c0.684-3.394,1.188-6.796,1.593-10.207
						c0.003-0.001,0.005,0,0.008-0.001c0.184-0.073,0.369-0.165,0.553-0.243c0.01-0.002,0.021-0.002,0.031-0.004
						c0.069-0.014,0.124-0.046,0.171-0.084c4.365-1.895,8.853-5.163,11.417-9.133c0.204-0.317-0.283-0.707-0.53-0.409
						c-2.901,3.507-7.152,6.672-11.317,8.675c-0.064-0.015-0.124-0.031-0.187-0.046C289.076,75.56,289.193,74.436,289.299,73.31z"/>
				</g>
				<path style="fill:#465115;" d="M313.243,112.357c-1.687-1.546-3.689-2.895-5.815-4.123c0.107-0.066,0.217-0.128,0.333-0.179
					c0.43-0.189,1.038-0.108,1.378-0.432c0.11-0.105,0.091-0.269,0-0.376c-0.407-0.479-1.355-0.117-1.809,0.118
					c-0.24,0.124-0.445,0.285-0.632,0.464c-1.676-0.935-3.406-1.805-5.123-2.637c0.561-0.303,1.121-0.605,1.682-0.908
					c0.843-0.455,1.901-0.838,2.5-1.607c0.106-0.137,0.059-0.408-0.161-0.389c-0.946,0.083-1.776,0.699-2.593,1.149
					c-0.787,0.434-1.574,0.867-2.36,1.301c-1.481-0.713-2.933-1.404-4.299-2.097c-0.109-0.055-0.223-0.098-0.333-0.152
					c0.96-0.569,1.935-1.115,2.933-1.613c1.226-0.611,2.865-0.933,3.94-1.755c0.203-0.155,0.128-0.432-0.126-0.464
					c-1.193-0.15-2.76,0.824-3.802,1.336c-1.293,0.636-2.547,1.348-3.761,2.124c-1.439-0.631-2.936-1.119-4.479-1.475
					c1.185-0.877,2.401-1.712,3.651-2.492c1.325-0.827,2.91-1.488,4.084-2.519c0.231-0.202-0.016-0.562-0.287-0.493
					c-1.642,0.413-3.249,1.661-4.653,2.563c-1.284,0.824-2.591,1.693-3.704,2.752c-0.976-0.193-1.966-0.342-2.968-0.446
					c1.775-2.344,3.983-4.349,6.527-5.867c0.341-0.204,0.038-0.719-0.311-0.532c-1.814,0.972-3.436,2.263-4.91,3.692
					c-0.792,0.768-1.67,1.645-2.36,2.612c-0.919-0.069-1.844-0.106-2.774-0.114c0.385-0.404,0.751-0.833,1.136-1.207
					c0.803-0.779,1.637-1.533,2.476-2.274c0.297-0.262-0.102-0.796-0.43-0.556c-0.892,0.652-1.733,1.342-2.535,2.103
					c-0.613,0.582-1.357,1.212-1.859,1.938c-5.33,0.092-10.74,1.039-15.574,2.032c-0.689,0.142-0.547,1.308,0.168,1.243
					c4.801-0.438,9.758-1.096,14.64-1.164c0.237,2.52,1.031,5.555,2.56,7.345c0.242,0.284,0.654-0.025,0.585-0.341
					c-0.308-1.402-1.071-2.694-1.508-4.07c-0.308-0.97-0.522-1.958-0.741-2.947c0.945,0.002,1.885,0.038,2.822,0.095
					c0.015,0.169,0.169,0.285,0.331,0.298c0.288,2.206,0.792,4.773,1.904,6.599c0.245,0.402,0.766,0.115,0.709-0.299
					c-0.167-1.214-0.693-2.398-1.016-3.585c-0.264-0.97-0.483-1.952-0.718-2.929c1.112,0.1,2.215,0.251,3.308,0.456
					c-0.003,0.028-0.02,0.047-0.015,0.079c0.182,1.279,0.543,2.532,0.876,3.778c0.293,1.096,0.496,2.244,1.011,3.258
					c0.151,0.297,0.659,0.163,0.637-0.172c-0.075-1.133-0.488-2.231-0.795-3.321c-0.331-1.176-0.649-2.366-1.102-3.502
					c1.418,0.295,2.813,0.699,4.184,1.217c0.001,0.019-0.004,0.035-0.001,0.055c0.224,1.305,0.563,2.596,0.87,3.884
					c0.266,1.118,0.413,2.341,1.012,3.329c0.147,0.242,0.494,0.128,0.511-0.138c0.075-1.146-0.365-2.325-0.643-3.433
					c-0.281-1.123-0.552-2.253-0.882-3.363c0.657,0.276,1.309,0.575,1.952,0.913c0.722,0.38,1.447,0.763,2.17,1.144
					c0.337,1.185,0.655,2.375,0.937,3.575c0.3,1.276,0.451,2.648,0.952,3.857c0.143,0.344,0.699,0.339,0.696-0.094
					c-0.017-2.222-0.903-4.662-1.648-6.843c1.568,0.829,3.136,1.664,4.698,2.512c0.185,0.87,0.397,1.735,0.62,2.596
					c0.233,0.899,0.391,1.858,0.844,2.672c0.159,0.285,0.617,0.158,0.613-0.166c-0.011-0.927-0.351-1.852-0.595-2.744
					c-0.167-0.611-0.34-1.22-0.521-1.827c2.24,1.227,4.467,2.476,6.652,3.774C313.048,114.019,313.903,112.962,313.243,112.357z"/>
			</g>
			<g>
				<path style="fill:#8DA338;" d="M248.05,129.506c4.911-6.346,9.171-13.02,14.68-18.92c5.345-5.724,11.29-10.887,17.739-15.333
					c6.419-4.425,13.339-8.236,20.559-11.187c3.72-1.521,7.536-2.817,11.408-3.891c3.267-0.907,6.538-1.326,9.256-3.442
					c1.007-0.784,0.338-2.393-0.714-2.703c-6.71-1.979-16.632,2.953-22.747,5.52c-7.642,3.208-14.879,7.27-21.581,12.149
					c-12.418,9.04-25.431,21.748-31.069,36.369C245.067,129.406,247.156,130.661,248.05,129.506L248.05,129.506z"/>
			</g>
		</g>
		<g>
			<g>
				<g>
					<path style="fill:#3E4718;" d="M374.644,54.144c3.17-4.711,5.586-9.538,9.641-13.647c4.147-4.203,9.161-7.622,14.647-9.828
						c5.898-2.372,12.359-3.338,18.237-0.419c5.017,2.491,9.032,7.15,10.371,12.629c2.342,9.578-2.611,20.34,6.977,27.182
						c6.549,4.674,17.287,4.06,22.276-2.662c0.69-0.929-0.605-1.913-1.468-1.468c-5.976,3.08-11.675,6.039-18.206,2.14
						c-6.705-4.003-6.108-11.461-5.955-18.239c0.212-9.412-3.769-17.848-12.475-22.182c-8.848-4.405-18.957-1.405-26.975,3.457
						c-7.849,4.759-16.454,13.162-18.39,22.481C373.155,54.395,374.18,54.833,374.644,54.144L374.644,54.144z"/>
				</g>
				<g>
					<path style="fill:#8DA436;" d="M472.878,67.374l-1.744-6.315c-0.929-3.363-4.408-5.336-7.771-4.408l-9.472,2.616
						c-3.363,0.929-5.336,4.408-4.408,7.771l1.744,6.315c0.929,3.363,4.408,5.336,7.771,4.408l9.472-2.616
						C471.833,74.216,473.807,70.737,472.878,67.374z"/>
					<path style="fill:#BFD661;" d="M469.03,67.319l-1.17-4.237c-0.623-2.257-2.958-3.581-5.215-2.958l-6.356,1.755
						c-2.257,0.623-3.581,2.958-2.958,5.215l1.17,4.237c0.623,2.257,2.958,3.581,5.215,2.958l6.356-1.755
						C468.329,71.911,469.653,69.576,469.03,67.319z"/>
				</g>
			</g>
			<g>
				<path style="fill:#8DA436;" d="M393.5,89.783l-6.187-30.934c-0.061-0.914-0.158-1.449-0.299-1.497
					c-15.707-5.363-26.434,2.682-26.434,2.682c-7.279,5.363-11.876,34.862-8.811,39.076c3.065,4.214,34.096,0.766,34.096,0.766
					l3.402-1.627C392.449,96.727,394.192,93.241,393.5,89.783z"/>
				<g>
					<path style="opacity:0.49;fill:#D6D6D6;" d="M390.289,52.701c1.597,0.545-1.404,51.941-1.404,51.941
						s-37.903,4.211-41.646-0.936c-3.743-5.147,1.872-41.178,10.762-47.729C358.001,55.976,371.103,46.15,390.289,52.701z"/>
					<path style="opacity:0.49;fill:#EDEDED;" d="M388.885,104.642l4.156-1.988c3.886-1.858,6.015-6.117,5.17-10.341l-7.922-39.613
						L388.885,104.642z"/>
				</g>
				<g>
					<path style="fill:#8EA435;" d="M378.565,81.708c-0.287-2.269-1.303-4.328-1.995-6.482c-1.186-3.69-1.556-7.37-1.316-11.225
						c0.093-1.495-2.045-2.412-3.04-1.259c-4.976,5.766-12.971,12.686-11.014,20.804c0.251,6.493,8.631,10.293,14.321,6.416
						C378.206,88.132,378.952,84.76,378.565,81.708z M371.995,73.716c0.028-0.578,0.033-1.164,0.013-1.757
						c0.111,0.68,0.239,1.359,0.395,2.037C372.282,73.881,372.145,73.786,371.995,73.716z M371.793,70.423
						c-0.08-0.168-0.188-0.317-0.308-0.454c-0.001-0.009-0.001-0.022-0.002-0.031c-0.028-0.354-0.137-0.671-0.301-0.943
						c0.152-0.159,0.303-0.316,0.454-0.472C371.671,69.16,371.722,69.793,371.793,70.423z"/>
					<path style="fill:#465115;" d="M375.323,79.475c-1.176,0.817-2.037,2.103-3.088,3.081c-0.988,0.92-2.061,1.714-3.154,2.493
						c-0.019-1.028-0.01-2.06,0.058-3.104c0.039-0.603,0.103-1.204,0.182-1.803c1.14-0.453,2.189-1.259,3.161-1.966
						c1.028-0.747,2.27-1.523,2.949-2.614c0.205-0.329-0.189-0.648-0.497-0.497c-1.211,0.592-2.219,1.717-3.313,2.505
						c-0.682,0.491-1.429,0.926-2.127,1.414c0.257-1.572,0.595-3.136,0.895-4.702c0.679-0.383,1.312-0.877,1.912-1.342
						c0.898-0.695,1.883-1.433,2.541-2.368c0.223-0.317-0.223-0.766-0.54-0.54c-0.874,0.624-1.606,1.449-2.444,2.125
						c-0.395,0.318-0.822,0.609-1.245,0.903c0.336-1.94,0.562-3.887,0.44-5.86c-0.022-0.352-0.602-0.486-0.659-0.089
						c-0.309,2.151-0.77,4.261-1.228,6.37c-0.106-0.314-0.211-0.627-0.301-0.943c-0.259-0.9-0.449-1.821-0.742-2.71
						c-0.107-0.323-0.665-0.293-0.629,0.085c0.16,1.666,0.613,3.598,1.329,5.165c-0.264,1.251-0.513,2.505-0.713,3.769
						c-0.864-1.527-1.801-2.998-2.303-4.715c-0.12-0.411-0.836-0.355-0.781,0.106c0.262,2.194,1.513,4.579,2.811,6.34
						c0.009,0.013,0.022,0.018,0.032,0.03c-0.082,0.71-0.149,1.424-0.186,2.144c-0.053,1.026-0.066,2.062-0.054,3.099
						c-0.616-0.942-1.307-1.852-1.929-2.75c-0.919-1.326-1.864-2.638-2.864-3.905c-0.227-0.287-0.66,0.079-0.493,0.38
						c1.543,2.781,3.218,5.985,5.358,8.375c0.199,3.456,0.79,6.906,1.902,10.148c0.268,0.782,1.418,0.471,1.24-0.342
						c-0.847-3.876-1.557-7.687-1.734-11.586c1.334-0.747,2.565-1.686,3.702-2.704c1.12-1.002,2.475-2.17,3.023-3.6
						C375.94,79.589,375.564,79.307,375.323,79.475z"/>
				</g>
			</g>
		</g>
		<g>
			<g>
				<g>
					<polygon style="fill:#DBBA91;" points="438.973,178.539 369.851,160.174 369.851,122.733 438.973,141.098 					"/>
					<path style="opacity:0.25;fill:#DBBA91;" d="M433.208,139.566c-6.525,9.381-19.044,13.021-30.274,14.588
						c-7.126,0.994-14.294,1.324-21.479,1.521c-3.948,0.108-7.795-0.16-11.604-0.635v5.134l69.122,18.365v-37.441L433.208,139.566z"
						/>
				</g>
				<polygon style="fill:#F4D7AF;" points="438.973,141.098 462.199,128.7 462.199,163.797 438.973,178.539 				"/>
				<path style="opacity:0.42;fill:#F4D7AF;" d="M438.973,166.907v11.632l23.226-14.742v-26.309
					C457.698,149.083,449.182,159.691,438.973,166.907z"/>
				<polygon style="fill:#EACFB2;" points="462.199,128.7 394.07,111.571 369.851,122.733 438.973,141.098 				"/>
			</g>
			<g>
				<g>
					<polygon style="fill:#8DA436;" points="414.07,134.136 385.295,126.797 385.295,164.216 423.231,174.152 423.747,136.603 					
						"/>
					<path style="opacity:0.18;fill:#8DA436;" d="M411.079,153.714c-5.826,1.517-12.014,2.113-18.018,1.663
						c-2.488-0.187-5.128-0.284-7.765-0.52v9.36l37.935,9.936l0.356-25.882C419.811,150.738,415.52,152.558,411.079,153.714z"/>
				</g>
				<polygon style="fill:#708223;" points="423.682,136.668 445.682,124.474 409.231,115.378 385.295,126.797 				"/>
				<g>
					<path style="fill:#FFF1DB;" d="M404.489,145.875c-3.777,0-6.886-1.292-7.311-2.956v13.532c0,3.576,2.899,6.475,6.475,6.475
						h1.727c3.576,0,6.475-2.899,6.475-6.475v-13.813h-0.012C411.716,144.435,408.477,145.875,404.489,145.875z"/>
					<path style="fill:#DBBA91;" d="M404.489,145.875c3.988,0,7.227-1.44,7.353-3.237c0.003-0.036,0.012-0.072,0.012-0.108
						c0-1.848-3.298-3.345-7.365-3.345c-4.068,0-7.365,1.498-7.365,3.345c0,0.132,0.021,0.262,0.054,0.39
						C397.603,144.583,400.712,145.875,404.489,145.875z"/>
					<path style="fill:#8DA436;" d="M404.489,145.915c3.26,0,6.018-0.963,6.985-2.297c-0.974-1.33-3.73-2.29-6.985-2.29
						c-3.256,0-6.013,0.96-6.986,2.291C398.472,144.952,401.23,145.915,404.489,145.915z"/>
				</g>
			</g>
			<g>
				<path style="fill:#FFF1DB;" d="M459.876,149.472c0-6.797-4.102-9.98-9.161-7.11c-5.06,2.87-9.161,10.706-9.161,17.502
					c0,6.796,4.102,9.98,9.161,7.11C455.774,164.105,459.876,156.268,459.876,149.472z"/>
				<g>
					<path style="fill:#8EA435;" d="M456.525,152.005c-0.539-0.818-1.493-1.287-2.263-1.911c-1.319-1.07-2.133-2.431-2.598-4.085
						c-0.181-0.645-1.655-0.239-2.088,0.594c-2.154,4.147-5.963,9.843-3.482,12.439c1.182,2.56,6.958,1.077,9.861-2.571
						C457.326,154.75,457.25,153.106,456.525,152.005z"/>
					<path style="fill:#465115;" d="M451.388,157.245c0.703-0.786,1.321-1.609,1.86-2.433c0.531-0.811,1.189-1.784,1.293-2.561
						c0.02-0.152-0.255-0.13-0.378,0.026c-0.6,0.757-0.926,1.595-1.419,2.373c-0.462,0.73-1.001,1.44-1.55,2.15
						c-0.174-0.409-0.332-0.83-0.455-1.277c-0.073-0.263-0.129-0.534-0.176-0.81c0.631-0.595,1.156-1.298,1.641-1.934
						c0.515-0.676,1.164-1.446,1.404-2.134c0.073-0.208-0.219-0.195-0.386-0.022c-0.657,0.677-1.1,1.505-1.649,2.22
						c-0.34,0.443-0.73,0.888-1.081,1.336c-0.091-0.73-0.137-1.483-0.2-2.226c0.358-0.402,0.671-0.831,0.967-1.238
						c0.443-0.607,0.939-1.268,1.191-1.885c0.085-0.21-0.258-0.231-0.419-0.024c-0.445,0.569-0.764,1.172-1.173,1.751
						c-0.192,0.272-0.409,0.544-0.622,0.816c-0.101-0.91-0.271-1.783-0.661-2.539c-0.07-0.135-0.449,0.021-0.421,0.203
						c0.148,0.984,0.198,2.006,0.251,3.026c-0.113-0.087-0.228-0.172-0.331-0.265c-0.303-0.272-0.568-0.577-0.89-0.832
						c-0.117-0.093-0.457,0.122-0.375,0.263c0.362,0.616,0.945,1.245,1.639,1.617c0.036,0.604,0.082,1.203,0.159,1.79
						c-0.773-0.308-1.577-0.572-2.169-1.079c-0.141-0.121-0.571,0.157-0.465,0.327c0.497,0.802,1.667,1.315,2.743,1.559
						c0.008,0.002,0.016-0.001,0.024,0.001c0.062,0.319,0.135,0.633,0.226,0.939c0.13,0.435,0.286,0.859,0.458,1.275
						c-0.529-0.158-1.098-0.278-1.624-0.416c-0.779-0.205-1.572-0.395-2.391-0.547c-0.185-0.034-0.395,0.272-0.244,0.333
						c1.394,0.57,2.936,1.26,4.636,1.456c0.673,1.335,1.587,2.525,2.791,3.442c0.291,0.222,0.955-0.325,0.715-0.592
						C453.164,160.063,452.117,158.77,451.388,157.245z"/>
				</g>
			</g>
		</g>
		<g>
			<g>
				<g>
					<g>
						<path style="fill:#A3796A;" d="M193.424,293.739v-7.101c0-3.1,2.513-5.613,5.613-5.613h35.114v18.327h-35.114
							C195.938,299.352,193.424,296.839,193.424,293.739z"/>
						
							<rect x="205.235" y="283.469" transform="matrix(-1.836970e-16 1 -1 -1.836970e-16 504.5875 75.7902)" style="fill:#6D5044;" width="18.327" height="13.44"/>
						<path style="opacity:0.32;fill:#A3796A;" d="M219.537,292.979c-7.895,1.382-17.879,2.35-26.112-0.279v1.039
							c0,3.1,2.513,5.613,5.613,5.613h35.114v-9.99C229.062,291.091,223.868,292.221,219.537,292.979z"/>
					</g>
					<path style="fill:#4D362B;" d="M234.219,299.352c-1.687,0-3.054-4.103-3.054-9.163c0-5.061,1.367-9.164,3.054-9.164
						c1.687,0,3.054,4.103,3.054,9.164C237.273,295.25,235.906,299.352,234.219,299.352z"/>
				</g>
				<path style="fill:#8C8583;" d="M251.414,312.231c-7.112-2.776-13.435-8.597-14.88-15.185c2.634,3.904,6.404,7.257,10.738,9.729
					c6.339,3.615,15.575,6.729,22.719,3.347c0.73-0.345,0.235-1.383-0.568-1.171c-7.206,1.904-16.163-1.432-21.907-5.148
					c-3.705-2.397-6.407-5.306-8.433-8.625c9.945,7.144,24.554,11.829,36.363,7.882c0.773-0.258,0.744-1.377-0.209-1.344
					c-7.665,0.272-14.741,0.431-22.047-2.063c-4.504-1.538-8.326-3.763-11.95-6.293c4.799,1.612,10.049,2.607,14.757,3.325
					c7.209,1.099,14.648,1.591,21.845,0.233c0.813-0.153,0.576-1.169-0.188-1.207c-7.67-0.388-15.248-0.348-22.823-1.685
					c-4.902-0.865-9.403-2.437-13.974-3.923c11.741-2.378,23.898-4.422,35.906-4.329c0.935,0.007,1.178-1.271,0.225-1.445
					c-7.309-1.341-14.549-0.307-21.833,0.677c-4.967,0.671-11.331,0.74-16.458,2.346c9.26-7.229,21.427-10.516,33.984-9.785
					c0.986,0.058,1.224-1.357,0.236-1.513c-7.859-1.246-15.482-0.803-23.01,1.647c-4.088,1.331-9.273,3.368-12.802,6.307
					c0.132-0.307,0.273-0.613,0.438-0.915c1.603-2.922,4.262-5.319,7.506-6.91c6.006-2.947,12.464-2.774,19.053-3.67
					c0.762-0.104,0.659-1.09,0-1.252c-7.422-1.826-16.542-0.394-22.827,3.527c-4.335,2.704-9.877,8.379-8.014,13.329
					c0.025,0.066,0.065,0.122,0.104,0.18c-0.226,0.268-0.339,0.62-0.255,1.037c-0.076,0.285-0.022,0.6,0.235,0.899
					c0.081,0.293,0.168,0.584,0.262,0.874c-2.988,9.155,7.114,20.455,17.153,22.47C251.648,313.754,252.33,312.588,251.414,312.231z
					"/>
			</g>
			<g>
				<g>
					<path style="fill:#33231C;" d="M166.553,427.7H66.683l-10.387,31.742l-0.033,0.161c0,6.77,27.121,12.097,60.258,12.097
						s60.387-5.391,60.387-12.161l0.032-0.097L166.553,427.7z"/>
					<g>
						<path style="fill:#543C32;" d="M227.936,344.858c-3.817-3.555-14.346-2.351-15.99,3.479c-0.203,0.72-0.421,2.014-0.615,3.288
							c0.081,7.741-1.292,15.003-9.133,19.169c-5.993,3.185-15.245,3.638-21.087-0.342c-7.08,1.958-13.722,6.599-16.298,13.739
							c-1.067,2.958-1.177,5.777-0.577,8.365c-3.268,4.583-3.392,11.561,2.061,15.995c0.368,0.299,0.739,0.56,1.112,0.804
							c13.997,9.737,33.936,6.029,46.282-4.656C238.706,383.051,232.41,349.026,227.936,344.858z"/>
						<path style="opacity:0.13;fill:#543C32;" d="M228.459,345.484c1.738,14.181-8.58,28.027-16.796,38.752
							c-5.327,6.955-11.339,14.073-19.452,17.829c-7.07,3.273-14.733,3.523-22.4,3.539c-2.896,0.006-4.484-2.011-4.776-4.234
							c-1.086-0.394-2.127-1.023-3.074-1.934c-0.056,3.255,1.238,6.595,4.336,9.114c0.368,0.299,0.739,0.56,1.112,0.804
							c13.997,9.737,33.936,6.029,46.282-4.656C237.743,383.883,232.849,351.64,228.459,345.484z"/>
						
							<ellipse transform="matrix(0.9977 -0.0675 0.0675 0.9977 -22.991 15.7324)" style="fill:#33231C;" cx="221.221" cy="347.952" rx="6.266" ry="2.927"/>
					</g>
					<g>
						<path style="fill:#4D362B;" d="M128.489,325.765h-24c-32.71,0-59.226,26.516-59.226,59.226v6.193
							c0,32.71,26.516,59.226,59.226,59.226h24c32.71,0,59.226-26.516,59.226-59.226v-6.193
							C187.715,352.281,161.199,325.765,128.489,325.765z"/>
						<path style="opacity:0.2;fill:#543C32;" d="M108.738,429.64c-18.194-0.081-37.667-4.63-53.504-13.834
							c-2.242-1.303-4.422-2.86-6.5-4.62c8.204,22.865,30.066,39.224,55.754,39.224h24c31.213,0,56.768-24.151,59.043-54.783
							C168.078,418.768,139.313,429.777,108.738,429.64z"/>
						<path style="fill:#33231C;" d="M50.051,361.641c-3.077,7.165-4.788,15.057-4.788,23.349v6.194
							c0,1.488,0.074,2.959,0.181,4.419c16.474,15.426,42.512,25.387,71.819,25.387c28.339,0,53.621-9.314,70.155-23.877
							c0.194-1.95,0.296-3.928,0.296-5.929v-6.194c0-7.946-1.576-15.521-4.414-22.445c-16.467,12.612-39.953,20.509-66.037,20.509
							C90.556,383.055,66.565,374.783,50.051,361.641z"/>
					</g>
					<g>
						<path style="fill:#A3796A;" d="M62.07,333.765v7.871c0,10.262,24.198,18.581,54.048,18.581
							c29.85,0,54.048-8.319,54.048-18.581v-7.871H62.07z"/>
						<path style="opacity:0.18;fill:#A3796A;" d="M143.46,333.765c-5.943,12.139-23.613,17.783-35.406,21.238
							c-4.586,1.344-9.125,2.598-13.687,3.642c6.657,1.008,14.01,1.571,21.75,1.571c29.85,0,54.048-8.319,54.048-18.581v-7.871
							H143.46z"/>
						<ellipse style="fill:#6D5044;" cx="116.263" cy="332.345" rx="54.194" ry="18.581"/>
						<path style="opacity:0.31;fill:#6D5044;" d="M156.368,319.848c-3.389,7.2-11.033,12.352-17.97,15.59
							c-10.355,4.833-21.05,6.436-32.428,5.12c-11.319-1.309-22.624-4.714-31.806-11.631c-1.968-1.483-4.119-3.167-6.152-5.038
							c-3.79,2.537-5.943,5.41-5.943,8.456c0,10.262,24.263,18.581,54.194,18.581s54.194-8.319,54.194-18.581
							C170.457,327.533,165.121,323.148,156.368,319.848z"/>
						<path style="fill:#A3796A;" d="M120.521,334.668h-8.516c-8.124,0-14.71-6.586-14.71-14.71l0,0
							c0-8.124,6.586-14.71,14.71-14.71h8.516c8.124,0,14.71,6.586,14.71,14.71l0,0
							C135.231,328.082,128.645,334.668,120.521,334.668z"/>
						<path style="opacity:0.18;fill:#A3796A;" d="M124.778,323.955c-8.685,3.511-19.824,2.245-27.454-3.436
							c0.297,7.862,6.747,14.148,14.681,14.148h8.516c8.124,0,14.71-6.586,14.71-14.71c0-1.282-0.181-2.518-0.489-3.703
							C132.27,319.553,129.001,322.248,124.778,323.955z"/>
						
							<path style="fill:none;stroke:#33231C;stroke-width:9.2483;stroke-linecap:round;stroke-linejoin:round;stroke-miterlimit:10;" d="
							M57.908,341.249V301.12c0-20.88,17.873-37.806,39.921-37.806h37.06c22.048,0,39.922,16.926,39.922,37.806v40.129"/>
					</g>
				</g>
				<g>
					<g style="opacity:0.39;">
						<path style="fill:#FFFFFF;" d="M110.559,307.962c-1.557,0.075-3.059,0.403-4.451,1.123c-0.647,0.334-1.294,0.837-1.805,1.361
							c-0.658,0.675-0.64,1.414-1.066,2.168c-0.226,0.399-0.243,0.912,0,1.309c0.296,0.484,0.717,0.697,1.292,0.619
							c0.435-0.059,0.661-0.346,1.029-0.545c0.358-0.194,0.733-0.278,1.084-0.519c1.417-0.974,2.641-2.042,4.315-2.568
							C112.512,310.42,112.314,307.878,110.559,307.962L110.559,307.962z"/>
					</g>
					<g style="opacity:0.39;">
						<path style="fill:#FFFFFF;" d="M79.514,324.574c1.864-0.453,3.74-0.801,5.605-1.246c1.551-0.37,3.532-0.28,4.579-1.609
							c0.449-0.57,0.423-1.305-0.222-1.726c-1.53-0.998-3.558-0.134-5.187,0.325c-2.002,0.564-3.724,1.435-5.535,2.456
							C77.766,323.33,78.44,324.835,79.514,324.574L79.514,324.574z"/>
					</g>
					<g style="opacity:0.39;">
						<g>
							<path style="fill:#FFFFFF;" d="M64.376,280.809c1.638-2.385,3.562-4.624,5.756-6.516c1.042-0.899,2.117-1.793,3.245-2.581
								c1.037-0.724,2.117-1.096,2.656-2.283c0.215-0.473,0.08-1.16-0.521-1.281c-2.472-0.498-5.525,2.165-7.255,3.736
								c-2.454,2.228-4.385,4.806-5.845,7.776C61.764,280.98,63.545,282.018,64.376,280.809L64.376,280.809z"/>
						</g>
						<g>
							<path style="fill:#FFFFFF;" d="M82.482,266.087c1.194-0.269,2.389-0.538,3.583-0.807c1.21-0.272,2.422-0.343,3.615-0.69
								c1.885-0.548,1.022-3.578-0.806-2.924c-1.2,0.43-2.221,1.08-3.387,1.579c-1.187,0.508-2.373,1.017-3.56,1.525
								C81.148,265.105,81.724,266.258,82.482,266.087L82.482,266.087z"/>
						</g>
						<g>
							<path style="fill:#FFFFFF;" d="M214.005,356.868c0.103,1.376,0.043,2.721-0.303,4.063c-0.328,1.27-0.997,2.357-0.661,3.689
								c0.227,0.901,1.284,1.263,2.06,0.838c2.657-1.454,2.191-6.484,1.733-8.972C216.542,354.901,213.883,355.248,214.005,356.868
								L214.005,356.868z"/>
						</g>
						<g>
							<path style="fill:#FFFFFF;" d="M209.566,371.068c-2.72,2.382-6.181,4.327-9.579,5.433c-2.954,0.962-6.131,1.373-9.033,2.416
								c-2.065,0.742-1.835,3.926,0.534,3.946c7.455,0.064,14.214-5.79,19.097-10.776
								C211.24,371.417,210.258,370.461,209.566,371.068L209.566,371.068z"/>
						</g>
						<g>
							<path style="fill:#FFFFFF;" d="M64.723,343.516c2.168,2.116,4.425,3.936,7.102,5.368c2.189,1.171,5.252,3.016,7.787,2.752
								c0.723-0.075,1.368-1.037,0.67-1.618c-1.978-1.644-4.911-2.098-7.222-3.247c-2.576-1.281-5.122-2.722-7.51-4.326
								C64.901,342.009,64.175,342.982,64.723,343.516L64.723,343.516z"/>
						</g>
						<g>
							<path style="fill:#FFFFFF;" d="M62.83,353.218c-5.492,5.659-9.318,14.756-9.579,22.667c-0.041,1.243,1.939,1.907,2.472,0.67
								c1.356-3.144,1.795-6.618,2.846-9.881c1.349-4.19,3.235-8.273,5.976-11.74C65.488,353.742,63.947,352.068,62.83,353.218
								L62.83,353.218z"/>
						</g>
						<g>
							<path style="fill:#FFFFFF;" d="M66.005,445.836c-1.001,3.476-2.799,7.884-2.218,11.544c0.099,0.625,1.062,0.866,1.457,0.385
								c2.345-2.857,3.015-7.568,3.904-11.062C69.665,444.668,66.586,443.818,66.005,445.836L66.005,445.836z"/>
						</g>
					</g>
				</g>
			</g>
			<g>
				<g>
					<g>
						<path style="fill:#33231C;" d="M314.38,372.345h-36.948l-3.843,14.149l-0.012,0.072c0,3.018,10.034,5.392,22.293,5.392
							c12.259,0,22.34-2.403,22.34-5.421l0.012-0.043L314.38,372.345z"/>
						<g>
							<path style="fill:#543C32;" d="M295.9,381.636L295.9,381.636c-16.462,0-29.807-13.345-29.807-29.806v-19.355h59.613v19.355
								C325.707,368.291,312.362,381.636,295.9,381.636z"/>
							<path style="opacity:0.2;fill:#543C32;" d="M301.929,365.635c-8.267,5.927-17.551,8.306-26.795,7.566
								c5.368,5.217,12.689,8.434,20.766,8.434c16.462,0,29.806-13.345,29.806-29.806v-18.584
								C320.92,345.965,312.999,357.698,301.929,365.635z"/>
							<g>
								<ellipse style="fill:#33231C;" cx="295.9" cy="332.958" rx="29.855" ry="8.516"/>
								<g>
									<path style="fill:#8DA338;" d="M268.09,336.055c4.344,3.172,15.153,5.419,27.81,5.419s23.466-2.248,27.81-5.419
										c-4.344-3.172-15.153-5.419-27.81-5.419S272.434,332.883,268.09,336.055z"/>
									<path style="opacity:0.53;fill:#8DA338;" d="M293.683,337.087c-7.083-0.028-17.253,1.259-24.767-1.574
										c-0.295,0.177-0.573,0.358-0.825,0.542c4.344,3.172,15.153,5.419,27.81,5.419s23.466-2.248,27.81-5.419
										c-0.706-0.515-1.599-1.003-2.626-1.464C312.218,336.605,302.959,337.124,293.683,337.087z"/>
								</g>
							</g>
						</g>
					</g>
					<g>
						<g>
							<path style="opacity:0.39;fill:#FFFFFF;" d="M270.021,342.996c-0.61,2.504-0.913,4.893-0.917,7.47
								c-0.003,2.027-0.352,4.171,1.456,5.423c0.381,0.264,1.024,0.167,1.332-0.172c1.393-1.535,0.66-3.324,0.548-5.252
								c-0.139-2.378-0.166-4.785-0.185-7.167C272.245,342.039,270.331,341.726,270.021,342.996L270.021,342.996z"/>
						</g>
						<g>
							<path style="opacity:0.39;fill:#FFFFFF;" d="M277.599,383.299c-0.445,1.055-0.889,2.11-1.334,3.165
								c-0.27,0.641,0.291,1.417,0.9,1.585c0.66,0.181,1.416-0.222,1.585-0.9c0.274-1.102,0.549-2.204,0.823-3.305
								C279.901,382.525,278.095,382.121,277.599,383.299L277.599,383.299z"/>
						</g>
					</g>
				</g>
				<g>
					<g>
						<path style="fill:#33231C;" d="M283.413,442.023h-36.948l-3.843,14.149l-0.012,0.072c0,3.018,10.034,5.392,22.293,5.392
							c12.259,0,22.34-2.403,22.34-5.421l0.012-0.043L283.413,442.023z"/>
						<g>
							<path style="fill:#543C32;" d="M264.932,451.313L264.932,451.313c-16.462,0-29.806-13.345-29.806-29.806v-19.355h59.613
								v19.355C294.739,437.968,281.394,451.313,264.932,451.313z"/>
							<path style="opacity:0.2;fill:#543C32;" d="M270.961,435.313c-8.267,5.927-17.551,8.306-26.795,7.566
								c5.368,5.217,12.689,8.434,20.766,8.434c16.462,0,29.806-13.345,29.806-29.806v-18.584
								C289.952,415.642,282.031,427.376,270.961,435.313z"/>
							<g>
								<ellipse style="fill:#33231C;" cx="264.933" cy="402.636" rx="29.855" ry="8.516"/>
								<g>
									<path style="fill:#8DA338;" d="M237.122,405.732c4.344,3.172,15.153,5.419,27.81,5.419s23.466-2.248,27.81-5.419
										c-4.344-3.172-15.153-5.419-27.81-5.419S241.466,402.561,237.122,405.732z"/>
									<path style="opacity:0.53;fill:#8DA338;" d="M262.715,406.765c-7.083-0.028-17.253,1.259-24.767-1.574
										c-0.295,0.177-0.573,0.358-0.825,0.542c4.344,3.172,15.153,5.419,27.81,5.419s23.466-2.248,27.81-5.419
										c-0.706-0.515-1.599-1.003-2.626-1.464C281.25,406.283,271.991,406.802,262.715,406.765z"/>
								</g>
							</g>
						</g>
					</g>
					<g>
						<path style="opacity:0.39;fill:#FFFFFF;" d="M241.527,414.684c-0.166-0.868-1.588-0.869-1.754,0
							c-0.362,1.894-0.372,3.735-0.408,5.661c-0.033,1.748-0.368,3.557,0.402,5.162c0.321,0.669,1.446,0.669,1.767,0
							c0.77-1.604,0.435-3.414,0.402-5.162C241.899,418.419,241.889,416.578,241.527,414.684z"/>
						<path style="opacity:0.39;fill:#FFFFFF;" d="M247.042,450.092c-0.734,1.338-0.849,2.83-1,4.316
							c-0.066,0.653,0.945,1.098,1.359,0.563c0.902-1.166,1.866-2.32,2.252-3.778C250.06,449.653,247.836,448.646,247.042,450.092z"
							/>
					</g>
				</g>
			</g>
		</g>
		<g>
			<g>
				<ellipse style="fill:#4B3128;" cx="242.715" cy="214.539" rx="58.581" ry="11.097"/>
				<g>
					<path style="fill:#616B24;" d="M211.402,187.275c-0.306-0.459-1.116-0.502-1.436-0.028c-4.733,7.035-11.135,15.32-5.865,23.835
						c3.292,5.319,13.412,12.82,20.081,9.879c0.271,0.215,0.724,0.213,0.861-0.188C228.989,209.219,217.285,196.11,211.402,187.275z
						"/>
					<path style="fill:#262B09;" d="M216.794,222.018c-0.182-1.103-0.404-2.198-0.64-3.291c0.008-0.016,0.021-0.023,0.028-0.04
						c1.699-3.904,3.851-7.964,4.812-12.123c0.111-0.478-0.626-0.795-0.897-0.385c-1.933,2.922-3.265,6.375-4.598,9.686
						c-0.598-2.47-1.239-4.934-1.784-7.419c1.766-2.667,3.439-5.463,5.072-8.191c0.291-0.486-0.308-1.013-0.705-0.564
						c-1.733,1.959-3.418,4.214-4.816,6.552c-0.066-0.348-0.137-0.695-0.197-1.045c-0.155-0.91-0.288-1.825-0.426-2.739
						c0.561-1.04,0.839-2.235,1.221-3.352c0.497-1.454,1.02-2.9,1.577-4.332c0.187-0.481-0.514-0.783-0.736-0.316
						c-0.78,1.635-1.823,3.588-2.419,5.529c-0.535-3.96-0.932-7.943-1.204-11.92c-0.032-0.465-0.703-0.357-0.704,0.087
						c-0.005,3.722,0.101,7.643,0.414,11.597c-0.266-0.472-0.533-0.934-0.771-1.378c-0.874-1.631-1.808-3.221-2.783-4.793
						c-0.237-0.382-0.911-0.015-0.695,0.387c0.904,1.68,1.781,3.377,2.625,5.088c0.626,1.268,1.127,2.776,1.931,3.976
						c0.115,1.039,0.249,2.075,0.399,3.109c-1.677-1.961-3.072-4.325-5.436-5.381c-0.373-0.167-0.834,0.335-0.526,0.664
						c2.195,2.341,3.949,5.184,6.377,7.286c0.001,0.006,0.002,0.011,0.003,0.017c-0.074,0.151-0.155,0.303-0.226,0.454
						c-0.187,0.399,0.114,0.783,0.469,0.88c0.236,1.204,0.505,2.395,0.802,3.572c-0.473-0.369-0.961-0.719-1.447-1.056
						c-2.165-1.505-4.405-2.974-6.761-4.162c-0.42-0.212-0.733,0.393-0.409,0.681c3.09,2.747,6.591,4.71,9.48,7.611
						c0.593,1.908,1.277,3.765,2.079,5.54C216.111,222.709,216.883,222.559,216.794,222.018z"/>
				</g>
				<g>
					<path style="fill:#8EA435;" d="M278.852,226.272c-1.885-1.279,3.079-16.314-38.483-33.402
						c-3.285-1.351-6.991-2.023-10.557-1.596c-3.566,0.428-7.138,2.74-7.604,6.029c-0.226,1.594,0.267,3.309-0.468,4.767
						c-1.339,2.655-5.367,2.506-8.417,3.317c-6.294,1.672-9.174,8.219-11.198,13.965c-0.688,1.953-1.384,3.972-1.182,6.016
						c0.514,5.201,6.355,8.372,11.655,10.208c6.88,2.384,14.04,4.016,21.236,5.39c6.925,1.323,13.967,2.415,21.033,2.143
						c6.057-0.234,18.712,1.622,24.044-1.125C284.638,239.034,283.781,229.616,278.852,226.272z"/>
					<path style="opacity:0.11;fill:#8EA435;" d="M278.852,226.272c-1.201-0.815,0.375-7.216-9.073-16.174
						c-10.297,7.103-21.153,12.439-34.931,9.739c-8.508-1.667-19.856-5.168-26.167-11.918c-3.232,2.855-5.114,7.342-6.555,11.434
						c-0.688,1.953-1.384,3.972-1.182,6.016c0.514,5.201,6.355,8.372,11.655,10.208c6.88,2.384,14.04,4.016,21.236,5.39
						c6.925,1.323,13.967,2.415,21.033,2.143c6.057-0.234,18.712,1.622,24.044-1.125
						C284.638,239.034,283.781,229.616,278.852,226.272z"/>
				</g>
				<g>
					<path style="fill:#465115;" d="M195.55,200.21c-0.462-0.301-1.224-0.021-1.33,0.541c-1.572,8.332-4.183,18.472,4.02,24.214
						c5.124,3.588,17.383,6.485,22.35,1.15c0.334,0.091,0.749-0.09,0.717-0.512C220.372,213.43,204.444,206.005,195.55,200.21z"/>
					<path style="fill:#262B09;" d="M214.219,230.003c-0.602-0.942-1.239-1.861-1.888-2.771c0.001-0.018,0.01-0.03,0.01-0.048
						c0.02-4.258,0.395-8.837-0.364-13.038c-0.087-0.483-0.889-0.483-0.976,0c-0.623,3.448-0.483,7.146-0.401,10.715
						c-1.525-2.033-3.086-4.044-4.568-6.112c0.57-3.148,1.003-6.377,1.426-9.528c0.076-0.561-0.683-0.809-0.87-0.24
						c-0.819,2.484-1.477,5.221-1.838,7.921c-0.198-0.294-0.401-0.585-0.593-0.882c-0.502-0.775-0.985-1.563-1.473-2.348
						c0.105-1.177-0.111-2.384-0.201-3.562c-0.117-1.532-0.208-3.067-0.261-4.603c-0.018-0.516-0.781-0.516-0.802,0
						c-0.071,1.811-0.258,4.016-0.04,6.035c-2.054-3.427-3.992-6.93-5.812-10.477c-0.213-0.415-0.787-0.05-0.612,0.358
						c1.464,3.422,3.11,6.982,4.958,10.492c-0.431-0.329-0.858-0.648-1.253-0.962c-1.447-1.153-2.932-2.245-4.449-3.305
						c-0.369-0.258-0.843,0.346-0.486,0.63c1.493,1.187,2.969,2.4,4.421,3.638c1.076,0.918,2.131,2.106,3.343,2.891
						c0.515,0.909,1.048,1.809,1.594,2.7c-2.315-1.139-4.53-2.761-7.118-2.798c-0.408-0.006-0.634,0.637-0.221,0.818
						c2.94,1.285,5.675,3.204,8.735,4.177c0.003,0.005,0.006,0.01,0.01,0.015c-0.008,0.168,0.121,0.104,0.751,1.13
						c0.692,1.013,1.409,2.001,2.147,2.965c-0.58-0.152-1.167-0.281-1.746-0.399c-2.584-0.528-5.221-0.993-7.855-1.155
						c-0.469-0.029-0.518,0.65-0.107,0.787c3.923,1.304,7.915,1.726,11.715,3.251c1.299,1.519,2.66,2.955,4.097,4.269
						C213.864,230.908,214.515,230.466,214.219,230.003z"/>
				</g>
			</g>
			<g>
				<path style="fill:#684F4C;" d="M242.715,225.636c-27.166,0-50.006-3.504-56.633-8.255l17.15,25.029
					c0,4.131,17.678,7.479,39.484,7.479s39.484-3.349,39.484-7.479l17.15-25.029C292.72,222.132,269.881,225.636,242.715,225.636z"
					/>
				<path style="opacity:0.2;fill:#543C32;" d="M283.613,222.48c-3.545,4.738-8.924,8.314-14.06,11.187
					c-8.962,5.011-19.014,9.448-28.762,12.622c-3.916,1.275-7.879,2.303-11.876,3.13c4.296,0.304,8.945,0.471,13.8,0.471
					c21.806,0,39.484-3.349,39.484-7.479l17.15-25.029C296.604,219.348,291.073,221.1,283.613,222.48z"/>
				<g style="opacity:0.39;">
					<path style="fill:#FFFFFF;" d="M198.529,229.311c0.931,1.34,1.812,2.712,2.624,4.127c0.715,1.247,1.23,2.934,2.591,3.586
						c0.632,0.303,1.643,0.109,1.782-0.725c0.272-1.641-0.687-2.863-1.535-4.204c-0.923-1.46-1.921-2.868-2.974-4.238
						C199.919,226.428,197.451,227.758,198.529,229.311L198.529,229.311z"/>
				</g>
			</g>
		</g>
	</g>
</g>
</svg>
